<svg xmlns="http://www.w3.org/2000/svg" viewBox="0 0 24 24" aria-hidden="true">
  <path
    fill="currentColor"
    d="M12 .297C5.37.297 0 5.67 0 12.297c0 5.302 3.438 9.8 8.205 11.385.6.113.82-.258.82-.577
    0-.285-.01-1.04-.015-2.04-3.338.724-4.042-1.61-4.042-1.61-.546-1.388-1.333-1.757-1.333-1.757-1.09-.745.083-.73.083-.73
    1.205.085 1.84 1.237 1.84 1.237 1.07 1.834 2.807 1.304 3.493.997.108-.777.418-1.305.762-1.605-2.665-.305-5.466-1.334-5.466-5.93
    0-1.31.47-2.38 1.236-3.22-.124-.304-.536-1.524.116-3.176 0 0 1.008-.322 3.3 1.23a11.5 11.5 0 0 1 3.003-.404
    11.5 11.5 0 0 1 3.003.404c2.29-1.552 3.297-1.23 3.297-1.23.653 1.652.241 2.872.118 3.176.77.84 1.235 1.91 1.235 3.22
    0 4.61-2.807 5.62-5.48 5.92.43.372.816 1.102.816 2.222 0 1.606-.015 2.896-.015 3.286 0 .315.218.69.825.57
    C20.565 22.092 24 17.592 24 12.297 24 5.67 18.627.297 12 .297Z"
  />
</svg>

